<svg xmlns="http://www.w3.org/2000/svg" viewBox="0 0 1591 350" width="1591" height="350"><defs><style>.cls-1{fill:#fe1f01;}.cls-2{fill:#fe2203;}</style></defs><title>Asset 2</title><g id="Layer_2" data-name="Layer 2"><g id="Layer_1-2" data-name="Layer 1"><g id="Mk18ET.tif"><path class="cls-1" d="M190,0c13.07,4.86,26.65,8,40,12,20.55,6.07,41.16,11.92,61.92,17.92V321.3c-11.42,3.19-22.9,6.44-34.4,9.62q-32.92,9.1-65.85,18.17A8,8,0,0,0,190,350h-4c-.73-1.35-2.23-1.37-3.4-1.8Q107.83,320.53,33,293c-9.23-3.41-18.44-6.85-27.66-10.28l.32-1.39,181.84,25V55.19L64,84.72v171L0,281Q0,175.5,0,70c1.26-.36,2.56-.64,3.79-1.1q71.95-27,143.86-54C160.47,10,173.56,5.84,186,0Z"/><path class="cls-2" d="M1591,229c-1.54.5-1,1.94-1.28,3-6.34,26.9-23.61,43-50,49.29-19.46,4.68-39,3.72-58.17-2.15a23.67,23.67,0,0,1-8.47-4.22V250.32c2.13-.68,3.35,1.1,4.8,1.91,17.68,9.92,36.37,14.15,56.2,8.59,17.77-5,29-16.85,31.56-35.4,2.41-17.48-1.74-33-17.59-43.12-11.06-7.09-23.65-8.47-36.45-8.43a315.63,315.63,0,0,0-34.65,1.75l7.16-105.18h97V92h-75.91L1501,152.83c7.78,0,15.22-.1,22.66,0,17.58.28,33.93,4.36,47.79,15.87,10.32,8.57,16,19.79,18.48,32.78.17.9-.29,2.07,1,2.5Z"/><path class="cls-2" d="M637,150.84H611.51V130.28h25.32c0-9.63-.09-18.75,0-27.86.24-19.86,11.63-37.17,28.91-44.12,10.49-4.21,24.94-4.55,36.25-.65V79.41c-6.06-2.75-11.95-4.25-18.21-3.7C671.46,76.79,664.34,83.1,662,95.29c-2.14,11.39-.55,22.87-1.13,34.87h58.25c0-7.6,0-14.87,0-22.14.12-15.29,3.53-29.34,15.05-40.44,12.52-12.06,34.51-16.43,50.4-9.72V78.93c-4.07-.86-7.79-2.72-11.94-3.11C756,74.25,745.88,82.27,744.13,99c-1.05,10.11-.58,20.28-.54,30.9h34.85v20.8H743.5V279.93H719.34V151.19H661.15V279.92H637Z"/><path class="cls-2" d="M596.56,171c-.18,24.23-3.8,45.6-14.71,65.1-17.38,31.06-44.9,45.77-79.7,47.62-27.71,1.47-52.77-5.81-73.35-25.24-15.53-14.66-24.44-33.14-28.41-53.84-4.68-24.42-3.54-48.7,4.44-72.42C418.4,92,452.42,67.61,495,66.73c28.53-.59,53.58,7.18,73.63,28.1,17.33,18.09,25.05,40.41,27.36,64.9C596.39,164.2,596.44,168.7,596.56,171Zm-26.07,6.69c-.07-12.93-1-23.5-3.55-33.91-7.67-31.77-29-50.92-60.87-54.53-30.3-3.43-57.95,11.69-71.77,39.36C424,149.18,421.92,171,425.1,193.35c6,42.22,34.83,71.85,80.07,67.64,21.24-2,38.46-11.06,50.55-29C567.27,214.93,570.33,195.58,570.48,177.74Z"/><path class="cls-2" d="M1436.87,72.37V95.21c-4.38-1.64-8.47-3.39-12.68-4.71-25.94-8.12-48.29-1.68-63.47,18.24-8,10.51-12.82,22.46-15.71,35.25a142.73,142.73,0,0,0-3.38,33.89c2.28-3.54,3.66-5.9,5.24-8.13,13.25-18.7,32.17-23.29,53.39-20.2,27,3.93,45.77,24.51,48.88,51.68,2.46,21.54-1.21,41.35-14.5,59-23.06,30.55-82,36.6-105.68-10.18-8.06-15.91-11.37-32.88-12.28-50.49-1.53-29.46,1.54-58.19,14.5-85.12,11-23,27.71-40,53.36-45.71A91.63,91.63,0,0,1,1436.87,72.37ZM1425,214.51c.24-2.67-.42-6.79-1.1-10.89-2.83-17.26-13.62-29.59-29-33.16-17.35-4-33.87,2-44.09,16.07-13.63,18.77-9.23,51,9.19,67.3a38,38,0,0,0,54.33-4.31C1422.46,239.77,1425.05,228.32,1425,214.51Z"/><path class="cls-2" d="M1109.21,211.28h-105c-3.42,29.81,18.64,52.72,49.49,51.88a74,74,0,0,0,40.66-13.29c1.21-.83,2.45-1.63,4.13-2.74v22.44a67.61,67.61,0,0,1-26.88,11.75c-13.81,2.94-27.69,3.79-41.62,1-19.81-4-34.76-15-42.7-33.37-13.44-31.11-13.22-62.32,4.75-91.81,19.86-32.59,59.11-37.07,84.95-24.18,18.94,9.45,27.3,26.4,30.93,46.29C1109.82,189.64,1109,200.12,1109.21,211.28Zm-24.76-20.65c-.19-3.18-.25-5.82-.52-8.44-1.84-17.89-12.48-31-27.42-34.05-32.38-6.57-50.74,21.73-52.09,42.49Z"/><path class="cls-2" d="M1170.24,272.7V247.25c2.63.17,4.11,2.17,6,3.35,18.81,12,39.14,15.6,60.72,10.27,23.95-5.91,36-28.59,28.05-52-5.24-15.46-17.88-21.52-32.46-24.74a95.82,95.82,0,0,0-22.32-2.16c-6.14.1-12.28,0-18.73,0V161.16h19.22a73.73,73.73,0,0,0,25-3.91c22.77-8.08,31.8-37.25,17.62-56.93-4.41-6.11-10.59-9.55-17.73-11.25-18.1-4.31-35-1.07-50.69,8.72-2.07,1.29-4.1,2.64-6.55,4.22V78.77a78.54,78.54,0,0,1,32.48-11.06c12.32-1.53,24.69-2,36.66,1.72,27.25,8.36,40.61,29,36,58.87-3.11,20.06-15.37,32.57-33.87,39.6-1.85.7-3.72,1.35-6.71,2.43,4,.82,6.94,1.28,9.8,2,40.36,10.58,53.34,59,24,89.34-16.47,17.05-37.24,22.36-60,22.25-13-.06-25.91-1.66-38-7C1175.88,275.72,1173.13,274.16,1170.24,272.7Z"/><path class="cls-2" d="M961.88,133.57v25.08c-6-3.55-11.59-6.73-17.77-8.65-33.16-10.29-63.5,8.64-69,43.12-1.94,12.17-1.53,24.26,2.15,36.07,8.49,27.26,36.32,40.48,65.17,31.19,6.81-2.19,12.88-5.82,19.32-9.88v22.82c-9.64,6.13-20.59,8.89-32.09,10.26-30.08,3.59-57.41-9.92-71.29-35.68-16.42-30.45-13.19-86,25.32-109.65C908.74,122.84,935.22,123.16,961.88,133.57Z"/><path class="cls-1" d="M824.62,280H801.23V130.55h23.39Z"/><path class="cls-2" d="M812.77,92.17c-9.2-.05-15.81-6.73-15.61-15.77A15.71,15.71,0,0,1,813.4,61,15.43,15.43,0,0,1,829,76.94C828.85,85.87,822.08,92.22,812.77,92.17Z"/></g></g></g></svg>
